<?xml version="1.0" encoding="UTF-8"?>
<svg width="22px" height="22px" viewBox="0 0 22 22" version="1.1" xmlns="http://www.w3.org/2000/svg" xmlns:xlink="http://www.w3.org/1999/xlink">
    <title>Icon</title>
    <g id="Foundation:-niceverynice.com" stroke="none" stroke-width="1" fill="none" fill-rule="evenodd">
        <g id="Main-Page" transform="translate(-131.000000, -1724.000000)" fill="#3142C6" fill-rule="nonzero">
            <g id="Block-with-Selector" transform="translate(-79.000000, 1176.000000)">
                <g id="Selector" transform="translate(208.000000, 344.000000)">
                    <g id="Item-3" transform="translate(1.000000, 201.000000)">
                        <path d="M20.5555556,3 L3.44444444,3 C2.1,3 1,4.1 1,5.44444444 L1,14 C1,15.3444444 2.1,16.4444444 3.44444444,16.4444444 L20.5555556,16.4444444 C21.9,16.4444444 23,15.3444444 23,14 L23,5.44444444 C23,4.1 21.9,3 20.5555556,3 Z M20.5555556,10.3333333 L15.6666667,10.3333333 C15.6666667,12.3133333 13.98,14 12,14 C10.02,14 8.33333333,12.3133333 8.33333333,10.3333333 L3.44444444,10.3333333 L3.44444444,5.44444444 L20.5555556,5.44444444 L20.5555556,10.3333333 Z M15.6666667,18.8888889 L23,18.8888889 L23,22.5555556 C23,23.9 21.9,25 20.5555556,25 L3.44444444,25 C2.1,25 1,23.9 1,22.5555556 L1,18.8888889 L8.33333333,18.8888889 C8.33333333,20.9177778 9.97111111,22.5555556 12,22.5555556 C14.0288889,22.5555556 15.6666667,20.9177778 15.6666667,18.8888889 Z" id="Icon"></path>
                    </g>
                </g>
            </g>
        </g>
    </g>
</svg>