<?xml version="1.0" encoding="UTF-8"?>
<svg width="24px" height="24px" viewBox="0 0 24 24" version="1.1" xmlns="http://www.w3.org/2000/svg" xmlns:xlink="http://www.w3.org/1999/xlink">
    <title>Icon</title>
    <g id="Foundation:-niceverynice.com" stroke="none" stroke-width="1" fill="none" fill-rule="evenodd">
        <g id="Main-Page" transform="translate(-129.000000, -1521.000000)" fill="#2B292D" fill-rule="nonzero">
            <g id="Block-with-Selector" transform="translate(-79.000000, 1176.000000)">
                <g id="Selector" transform="translate(208.000000, 344.000000)">
                    <g id="Item-1">
                        <path d="M12,11.68 C11.268,11.68 10.68,12.268 10.68,13 C10.68,13.732 11.268,14.32 12,14.32 C12.732,14.32 13.32,13.732 13.32,13 C13.32,12.268 12.732,11.68 12,11.68 Z M12,1 C5.376,1 0,6.376 0,13 C0,19.624 5.376,25 12,25 C18.624,25 24,19.624 24,13 C24,6.376 18.624,1 12,1 Z M14.628,15.628 L4.8,20.2 L9.372,10.372 L19.2,5.8 L14.628,15.628 Z" id="Icon"></path>
                    </g>
                </g>
            </g>
        </g>
    </g>
</svg>