<?xml version="1.0" encoding="UTF-8"?>
<svg width="23px" height="25px" viewBox="0 0 23 25" version="1.1" xmlns="http://www.w3.org/2000/svg" xmlns:xlink="http://www.w3.org/1999/xlink">
    <title>Icon</title>
    <g id="Foundation:-niceverynice.com" stroke="none" stroke-width="1" fill="none" fill-rule="evenodd">
        <g id="Main-Page" transform="translate(-130.000000, -1649.000000)" fill="#2B292D" fill-rule="nonzero">
            <g id="Block-with-Selector" transform="translate(-79.000000, 1176.000000)">
                <g id="Selector" transform="translate(208.000000, 344.000000)">
                    <g id="Item-2" transform="translate(1.000000, 129.000000)">
                        <path d="M2.42105263,10.7142857 L2.42105263,19.047619 L6.05263158,19.047619 L6.05263158,10.7142857 L2.42105263,10.7142857 Z M9.68421053,10.7142857 L9.68421053,19.047619 L13.3157895,19.047619 L13.3157895,10.7142857 L9.68421053,10.7142857 Z M0,25 L23,25 L23,21.4285714 L0,21.4285714 L0,25 Z M16.9473684,10.7142857 L16.9473684,19.047619 L20.5789474,19.047619 L20.5789474,10.7142857 L16.9473684,10.7142857 Z M11.5,0 L0,5.95238095 L0,8.33333333 L23,8.33333333 L23,5.95238095 L11.5,0 Z" id="Icon"></path>
                    </g>
                </g>
            </g>
        </g>
    </g>
</svg>