<?xml version="1.0" encoding="UTF-8"?>
<svg width="18px" height="17px" viewBox="0 0 18 17" version="1.1" xmlns="http://www.w3.org/2000/svg" xmlns:xlink="http://www.w3.org/1999/xlink">
    <title>icon-fb</title>
    <g id="Symbols" stroke="none" stroke-width="1" fill="none" fill-rule="evenodd" opacity="0.600000024">
        <g id="Footer" transform="translate(-1212.000000, -356.000000)" fill="#2B292D">
            <g id="Social-Icons">
                <g transform="translate(1171.000000, 355.000000)">
                    <path d="M59,1.70833333 L59,17.2916667 C59,17.5732484 58.5548895,17.9936306 58.25,18 L53.75,18 L53.75,11.625 L56,11.625 L56,8.79166667 L53.75,8.79166667 L53.75,7.375 C53.4226302,6.46496815 53.6384414,5.96178344 54.5,5.95833333 L56,5.95833333 L56,3.83333333 C55.9584114,3.63694268 55.1086549,3.56687898 53.75,3.83333333 C52.0333458,3.56687898 50.6170851,4.76433121 50.75,6.66666667 L50.75,8.79166667 L48.5,8.79166667 L48.5,11.625 L50.75,11.625 L50.75,18 L41.75,18 C41.4451105,18 41,17.5796178 41,17.2916667 L41,1.70833333 C41,1.42038217 41.4451105,1 41.75,1 L58.25,1 C58.5548895,1 59,1.41401274 59,1.70833333 L59,1.70833333 Z" id="icon-fb"></path>
                </g>
            </g>
        </g>
    </g>
</svg>