<?xml version="1.0" encoding="UTF-8"?>
<svg width="72px" height="72px" viewBox="0 0 72 72" version="1.1" xmlns="http://www.w3.org/2000/svg" xmlns:xlink="http://www.w3.org/1999/xlink">
    <title>Icon</title>
    <defs>
        <linearGradient x1="50%" y1="0%" x2="50%" y2="100%" id="linearGradient-1">
            <stop stop-color="#FFFFFF" stop-opacity="0.5" offset="0%"></stop>
            <stop stop-color="#FFFFFF" stop-opacity="0" offset="100%"></stop>
        </linearGradient>
        <rect id="path-2" x="0" y="0" width="60" height="60" rx="14"></rect>
        <filter x="-18.3%" y="-11.7%" width="136.7%" height="136.7%" filterUnits="objectBoundingBox" id="filter-3">
            <feOffset dx="0" dy="4" in="SourceAlpha" result="shadowOffsetOuter1"></feOffset>
            <feGaussianBlur stdDeviation="3" in="shadowOffsetOuter1" result="shadowBlurOuter1"></feGaussianBlur>
            <feColorMatrix values="0 0 0 0 0   0 0 0 0 0   0 0 0 0 0  0 0 0 0.05 0" type="matrix" in="shadowBlurOuter1" result="shadowMatrixOuter1"></feColorMatrix>
            <feOffset dx="0" dy="1" in="SourceAlpha" result="shadowOffsetOuter2"></feOffset>
            <feGaussianBlur stdDeviation="1.5" in="shadowOffsetOuter2" result="shadowBlurOuter2"></feGaussianBlur>
            <feColorMatrix values="0 0 0 0 0   0 0 0 0 0   0 0 0 0 0  0 0 0 0.1 0" type="matrix" in="shadowBlurOuter2" result="shadowMatrixOuter2"></feColorMatrix>
            <feMerge>
                <feMergeNode in="shadowMatrixOuter1"></feMergeNode>
                <feMergeNode in="shadowMatrixOuter2"></feMergeNode>
            </feMerge>
        </filter>
        <filter x="-10.8%" y="-4.2%" width="121.7%" height="121.7%" filterUnits="objectBoundingBox" id="filter-4">
            <feOffset dx="0" dy="1" in="SourceAlpha" result="shadowOffsetInner1"></feOffset>
            <feComposite in="shadowOffsetInner1" in2="SourceAlpha" operator="arithmetic" k2="-1" k3="1" result="shadowInnerInner1"></feComposite>
            <feColorMatrix values="0 0 0 0 1   0 0 0 0 1   0 0 0 0 1  0 0 0 0.1 0" type="matrix" in="shadowInnerInner1"></feColorMatrix>
        </filter>
        <linearGradient x1="22.4089624%" y1="0%" x2="83.2756233%" y2="100%" id="linearGradient-5">
            <stop stop-color="#3142C6" offset="0%"></stop>
            <stop stop-color="#AF61D1" offset="100%"></stop>
        </linearGradient>
    </defs>
    <g id="Symbols" stroke="none" stroke-width="1" fill="none" fill-rule="evenodd">
        <g id="Menu" transform="translate(6.000000, 0.000000)">
            <g id="Logo">
                <g transform="translate(0.000000, 2.000000)">
                    <g id="Icon">
                        <g id="Base">
                            <use fill="black" fill-opacity="1" filter="url(#filter-3)" xlink:href="#path-2"></use>
                            <use fill="#FFFFFF" fill-rule="evenodd" xlink:href="#path-2"></use>
                            <use fill-opacity="0.100000001" fill="url(#linearGradient-1)" fill-rule="evenodd" style="mix-blend-mode: overlay;" xlink:href="#path-2"></use>
                            <use fill="black" fill-opacity="1" filter="url(#filter-4)" xlink:href="#path-2"></use>
                        </g>
                        <path d="M17.8076923,27.0655242 L17.8076923,25.801386 C17.8076923,25.4567566 18.0943125,25.1693548 18.4478764,25.1693548 L42.5521236,25.1693548 C42.9072264,25.1693548 43.1923077,25.4523246 43.1923077,25.801386 L43.1923077,27.0655242 C40.9179851,27.06593 38.8764681,28.0590531 37.4810434,29.6334533 C36.0854156,28.0586119 34.0432252,27.0655242 31.7678365,27.0655242 L29.2321635,27.0655242 C26.9575103,27.0655242 24.9156258,28.0585317 23.5199263,29.632978 C22.1242281,28.0585304 20.0823449,27.0655242 17.8076923,27.0655242 Z M45.7307692,23.2731855 L15.2692308,23.2731855 C14.5682543,23.2731855 14,22.7072225 14,22.0090726 L14,11.2641129 C14,10.5659629 14.5682543,10 15.2692308,10 L20.9807692,10 C21.6817457,10 22.25,10.5659629 22.25,11.2641129 L22.25,15.0564516 L25.4230769,15.0564516 L25.4230769,11.2641129 C25.4230769,10.5659629 25.9913312,10 26.6923077,10 L34.3076923,10 C35.0086688,10 35.5769231,10.5659629 35.5769231,11.2641129 L35.5769231,15.0564516 L38.75,15.0564516 L38.75,11.2641129 C38.75,10.5659629 39.3182543,10 40.0192308,10 L45.7307692,10 C46.4317457,10 47,10.5659629 47,11.2641129 L47,22.0090726 C47,22.7072225 46.4317457,23.2731855 45.7307692,23.2731855 Z M37.4809882,32.3524223 L37.4809882,32.3524223 C38.845601,30.3086741 41.1790875,28.9616935 43.8283173,28.9616935 C44.5292944,28.9616935 45.0975481,29.5276565 45.0975481,30.2258065 L45.0975481,49.1875 C45.0975481,49.88565 44.5292944,50.4516129 43.8283173,50.4516129 L37.4807692,50.4516129 C36.7797927,50.4516129 36.2115385,49.88565 36.2115385,49.1875 L36.2115385,36.546364 C36.2115385,33.7530202 33.9384515,31.4899194 31.1332211,31.4899194 L29.8667789,31.4899194 C27.0622009,31.4899194 24.7884615,33.7539266 24.7884615,36.546364 L24.7884615,49.1875 C24.7884615,49.885078 24.2211389,50.4506844 23.520955,50.4516129 L23.520625,50.4516129 L17.1730769,50.4516129 C16.4721004,50.4516129 15.9038462,49.88565 15.9038462,49.1875 L15.9038462,30.2258065 C15.9038462,29.5276565 16.4721004,28.9616935 17.1730769,28.9616935 C19.8219971,28.9616935 22.1552487,30.3083593 23.5199282,32.3517062 C24.8846077,30.3083593 27.2178587,28.9616935 29.8667789,28.9616935 L31.1332211,28.9616935 C33.7830056,28.9616935 36.1165372,30.3084769 37.4809882,32.3524223 Z M38.75,44.074619 L42.4130755,41.237049 C42.4601075,41.200616 42.5089031,41.1679968 42.5590866,41.1391453 L42.5590866,38.0063929 L38.75,40.9570701 L38.75,44.074619 Z M38.75,37.7541582 L42.4131339,34.9165426 C42.4601475,34.8801235 42.5089234,34.8475157 42.5590866,34.8186725 L42.5590866,31.6163382 C42.5590866,31.6163382 42.0069064,31.7445515 41.2514952,32.1883525 C39.7544013,33.0678894 38.75,34.6904124 38.75,36.546364 L38.75,37.7541582 Z M38.75,47.2775316 L38.75,47.9233871 L42.5590866,47.9233871 L42.5590866,44.3268544 L38.75,47.2775316 Z M18.4423077,41.1399487 L18.4423077,41.1399487 C18.4920013,41.1686017 18.5403285,41.2009535 18.5869245,41.237049 L22.2513943,44.0756992 L22.2513943,40.9580599 L18.4423077,38.0073827 L18.4423077,41.1399487 Z M18.4423077,34.8194082 L18.4423077,34.8194082 C18.4920216,34.84807 18.5403685,34.8804326 18.5869829,34.9165426 L22.2513943,37.755148 L22.2513943,36.546364 C22.2513943,34.1861407 20.6270429,32.2034264 18.4423077,31.6461997 L18.4423077,34.8194082 Z M18.4423077,44.3279346 L18.4423077,47.9233871 L22.2513943,47.9233871 L22.2513943,47.2786118 L18.4423077,44.3279346 L18.4423077,44.3279346 Z" fill="url(#linearGradient-5)"></path>
                    </g>
                </g>
            </g>
        </g>
    </g>
</svg>